<svg xmlns="http://www.w3.org/2000/svg" viewBox="0 0 320 240">
  <rect width="320" height="240" fill="#fff"/>
  <!-- browser window -->
  <rect x="30" y="34" width="170" height="150" rx="10" fill="#faf7f4" stroke="#e3d4d2"/>
  <rect x="30" y="34" width="170" height="22" rx="10" fill="#f3ebe9"/>
  <circle cx="44" cy="45" r="3" fill="#c98b93"/><circle cx="54" cy="45" r="3" fill="#d8bfae"/><circle cx="64" cy="45" r="3" fill="#cdbf9e"/>
  <!-- webcam eye -->
  <ellipse cx="115" cy="96" rx="34" ry="20" fill="#fff" stroke="#7a1f2b" stroke-width="2.5"/>
  <circle cx="115" cy="96" r="11" fill="#7a1f2b"/>
  <circle cx="115" cy="96" r="4.5" fill="#fff"/>
  <text x="115" y="150" text-anchor="middle" font-family="Georgia,serif" font-size="11" fill="#646b73">webcam gaze</text>
  <!-- shield -->
  <path d="M115 162 l28 9 v18 q0 22 -28 33 q-28 -11 -28 -33 v-18 z" fill="#7a1f2b" opacity="0.12" stroke="#7a1f2b" stroke-width="2"/>
  <path d="M104 196 l8 8 16 -18" fill="none" stroke="#7a1f2b" stroke-width="3" stroke-linecap="round" stroke-linejoin="round"/>
  <!-- bot blocked -->
  <g transform="translate(244,90)">
    <rect x="-22" y="-20" width="44" height="38" rx="7" fill="#f3ebe9" stroke="#c98b93" stroke-width="2"/>
    <circle cx="-9" cy="-3" r="4" fill="#a23a48"/><circle cx="9" cy="-3" r="4" fill="#a23a48"/>
    <rect x="-12" y="8" width="24" height="4" rx="2" fill="#c98b93"/>
    <line x1="0" y1="-20" x2="0" y2="-30" stroke="#c98b93" stroke-width="2"/><circle cx="0" cy="-32" r="3" fill="#a23a48"/>
    <text x="0" y="40" text-anchor="middle" font-family="Georgia,serif" font-size="11" fill="#646b73">AI agent</text>
  </g>
  <!-- blocked arrow -->
  <line x1="208" y1="96" x2="170" y2="96" stroke="#c0392b" stroke-width="2.5" marker-end="url(#x)"/>
  <line x1="184" y1="84" x2="196" y2="108" stroke="#c0392b" stroke-width="3" stroke-linecap="round"/>
  <defs><marker id="x" markerWidth="8" markerHeight="8" refX="6" refY="3" orient="auto"><path d="M0 0 L6 3 L0 6 z" fill="#c0392b"/></marker></defs>
</svg>
